<?xml version="1.0" encoding="UTF-8" standalone="no"?>
<svg
   xmlns:dc="http://purl.org/dc/elements/1.1/"
   xmlns:cc="http://creativecommons.org/ns#"
   xmlns:rdf="http://www.w3.org/1999/02/22-rdf-syntax-ns#"
   xmlns:svg="http://www.w3.org/2000/svg"
   xmlns="http://www.w3.org/2000/svg"
   xmlns:sodipodi="http://sodipodi.sourceforge.net/DTD/sodipodi-0.dtd"
   xmlns:inkscape="http://www.inkscape.org/namespaces/inkscape"
   data-name="Layer 1"
   viewBox="0 0 90 90"
   x="0px"
   y="0px"
   version="1.1"
   id="svg6"
   sodipodi:docname="logo.svg"
   inkscape:version="0.92.4 5da689c313, 2019-01-14">
  <metadata
     id="metadata12">
    <rdf:RDF>
      <cc:Work
         rdf:about="">
        <dc:format>image/svg+xml</dc:format>
        <dc:type
           rdf:resource="http://purl.org/dc/dcmitype/StillImage" />
      </cc:Work>
    </rdf:RDF>
  </metadata>
  <defs
     id="defs10" />
  <sodipodi:namedview
     pagecolor="#ffffff"
     bordercolor="#666666"
     borderopacity="1"
     objecttolerance="10"
     gridtolerance="10"
     guidetolerance="10"
     inkscape:pageopacity="0"
     inkscape:pageshadow="2"
     inkscape:window-width="1278"
     inkscape:window-height="470"
     id="namedview8"
     showgrid="false"
     inkscape:zoom="2.6222222"
     inkscape:cx="45"
     inkscape:cy="45"
     inkscape:window-x="1280"
     inkscape:window-y="24"
     inkscape:window-maximized="0"
     inkscape:current-layer="svg6" />
  <title
     id="title2">Doubleboiler</title>
  <g
     aria-label="D"
     transform="translate(0, 12.5)"
     style="font-weight:bold;font-size:35px;font-family:Oswald;text-anchor:middle;fill:#000000"
     id="text4">
    <path
       d="m 40.266113,24.458008 v 15.568847 h 2.358399 q 4.033203,0 6.152343,-1.999511 2.136231,-1.999512 2.136231,-5.810547 0,-3.793945 -2.119141,-5.776367 -2.11914,-1.982422 -6.169433,-1.982422 z m -6.57959,-4.973145 H 40.625 q 5.810547,0 8.647461,0.837403 2.854004,0.820312 4.887695,2.802734 1.794434,1.726074 2.666016,3.981934 0.871582,2.255859 0.871582,5.109863 0,2.888183 -0.871582,5.161133 -0.871582,2.255859 -2.666016,3.981933 -2.050781,1.982422 -4.921875,2.819824 Q 46.367187,45 40.625,45 h -6.938477 z"
       style="font-weight:bold;font-size:35px;font-family:Oswald;text-anchor:middle;fill:#000000"
       id="path14" />
  </g>
</svg>
