<?xml version="1.0" encoding="UTF-8"?>
<svg id="svg10" data-name="Layer 1" version="1.1" viewBox="0 0 300 70" xmlns="http://www.w3.org/2000/svg" xmlns:cc="http://creativecommons.org/ns#" xmlns:dc="http://purl.org/dc/elements/1.1/" xmlns:rdf="http://www.w3.org/1999/02/22-rdf-syntax-ns#">
 <metadata id="metadata16">
  <rdf:RDF>
   <cc:Work rdf:about="">
    <dc:format>image/svg+xml</dc:format>
    <dc:type rdf:resource="http://purl.org/dc/dcmitype/StillImage"/>
   </cc:Work>
  </rdf:RDF>
 </metadata>
 <title id="title2">Doubleboiler</title>
 <path id="polygon4" d="m0 0h300v70h-300z" fill="#fff" stroke="#fff" stroke-linecap="round" stroke-linejoin="round" stroke-width="4"/>
 <path id="polygon6" d="m10 10h280v50h-280z" fill-opacity="0" stroke="#263238" stroke-linecap="round" stroke-linejoin="round" stroke-width="2"/>
 <g id="text8" transform="translate(0 12.5)" fill="#263238" aria-label="DOUBLEBOILER">
  <path id="path20" d="m8.4277 14.458v15.569h2.3584q4.0332 0 6.1523-1.9995 2.1362-1.9995 2.1362-5.8105 0-3.7939-2.1191-5.7764-2.1191-1.9824-6.1694-1.9824zm-6.5796-4.9731h6.9385q5.8105 0 8.6475 0.8374 2.854 0.82031 4.8877 2.8027 1.7944 1.7261 2.666 3.9819 0.87158 2.2559 0.87158 5.1099 0 2.8882-0.87158 5.1611-0.87158 2.2559-2.666 3.9819-2.0508 1.9824-4.9219 2.8198-2.8711 0.82031-8.6133 0.82031h-6.9385z"/>
  <path id="path22" d="m42.556 13.792q-3.0078 0-4.6655 2.2217-1.6577 2.2217-1.6577 6.2549 0 4.0161 1.6577 6.2378 1.6577 2.2217 4.6655 2.2217 3.0249 0 4.6826-2.2217 1.6577-2.2217 1.6577-6.2378 0-4.0332-1.6577-6.2549-1.6577-2.2217-4.6826-2.2217zm0-4.7681q6.1523 0 9.6387 3.5205 3.4863 3.5205 3.4863 9.7241 0 6.1865-3.4863 9.707-3.4863 3.5205-9.6387 3.5205-6.1353 0-9.6387-3.5205-3.4863-3.5205-3.4863-9.707 0-6.2036 3.4863-9.7241 3.5034-3.5205 9.6387-3.5205z"/>
  <path id="path24" d="m60.654 9.4849h6.5796v15.295q0 3.1616 1.0254 4.5288 1.0425 1.3501 3.3838 1.3501 2.3584 0 3.3838-1.3501 1.0425-1.3672 1.0425-4.5288v-15.295h6.5796v15.295q0 5.4175-2.7173 8.0664-2.7173 2.6489-8.2886 2.6489-5.5542 0-8.2715-2.6489-2.7173-2.6489-2.7173-8.0664z"/>
  <path id="path26" d="m99.294 19.363q1.5552 0 2.3584-0.68359t0.80322-2.0166q0-1.3159-0.80322-1.9995-0.80322-0.70068-2.3584-0.70068h-3.6401v5.4004zm0.22217 11.16q1.9824 0 2.9736-0.8374 1.0083-0.8374 1.0083-2.5293 0-1.6577-0.99122-2.478-0.99121-0.8374-2.9907-0.8374h-3.8623v6.6821zm6.1182-9.1772q2.1191 0.61523 3.2812 2.2729t1.1621 4.0674q0 3.6914-2.4951 5.5029-2.4951 1.8115-7.5879 1.8115h-10.92v-25.515h9.8779q5.3149 0 7.6904 1.6064 2.3926 1.6064 2.3926 5.144 0 1.8628-0.87158 3.1787-0.87158 1.2988-2.5293 1.9312z"/>
  <path id="path28" d="m115.75 9.4849h6.5796v20.542h11.553v4.9731h-18.132z"/>
  <path id="path30" d="m138.05 9.4849h17.756v4.9731h-11.177v4.751h10.51v4.9731h-10.51v5.8447h11.553v4.9731h-18.132z"/>
  <path id="path32" d="m172.18 19.363q1.5552 0 2.3584-0.68359 0.80322-0.68359 0.80322-2.0166 0-1.3159-0.80322-1.9995-0.80323-0.70068-2.3584-0.70068h-3.6401v5.4004zm0.22217 11.16q1.9824 0 2.9736-0.8374 1.0083-0.8374 1.0083-2.5293 0-1.6577-0.99121-2.478-0.99121-0.8374-2.9907-0.8374h-3.8623v6.6821zm6.1182-9.1772q2.1191 0.61523 3.2812 2.2729t1.1621 4.0674q0 3.6914-2.4951 5.5029-2.4951 1.8115-7.5879 1.8115h-10.92v-25.515h9.8779q5.3149 0 7.6904 1.6064 2.3926 1.6064 2.3926 5.144 0 1.8628-0.87158 3.1787-0.87159 1.2988-2.5293 1.9312z"/>
  <path id="path34" d="m200.3 13.792q-3.0078 0-4.6655 2.2217-1.6577 2.2217-1.6577 6.2549 0 4.0161 1.6577 6.2378 1.6577 2.2217 4.6655 2.2217 3.0249 0 4.6826-2.2217 1.6577-2.2217 1.6577-6.2378 0-4.0332-1.6577-6.2549-1.6577-2.2217-4.6826-2.2217zm0-4.7681q6.1523 0 9.6387 3.5205 3.4863 3.5205 3.4863 9.7241 0 6.1865-3.4863 9.707-3.4863 3.5205-9.6387 3.5205-6.1352 0-9.6387-3.5205-3.4863-3.5205-3.4863-9.707 0-6.2036 3.4863-9.7241 3.5034-3.5205 9.6387-3.5205z"/>
  <path id="path36" d="m218.39 9.4849h6.5796v25.515h-6.5796z"/>
  <path id="path38" d="m231.42 9.4849h6.5796v20.542h11.553v4.9731h-18.132z"/>
  <path id="path40" d="m253.72 9.4849h17.756v4.9731h-11.177v4.751h10.51v4.9731h-10.51v5.8447h11.553v4.9731h-18.132z"/>
  <path id="path42" d="m286.98 20.798q2.0679 0 2.9565-0.76904 0.90576-0.76904 0.90576-2.5293 0-1.7432-0.90576-2.4951-0.88867-0.75195-2.9565-0.75195h-2.7686v6.5454zm-2.7686 4.5459v9.6558h-6.5796v-25.515h10.049q5.0415 0 7.3828 1.6919 2.3584 1.6919 2.3584 5.3491 0 2.5293-1.2305 4.1528-1.2134 1.6235-3.6743 2.3926 1.3501 0.30762 2.4097 1.4014 1.0767 1.0767 2.1704 3.2812l3.5718 7.2461h-7.0068l-3.1104-6.3403q-0.93994-1.9141-1.9141-2.6147-0.95703-0.70068-2.5635-0.70068z"/>
 </g>
</svg>
