<?xml version="1.0" encoding="UTF-8" standalone="no"?>
<svg
   xmlns:dc="http://purl.org/dc/elements/1.1/"
   xmlns:cc="http://creativecommons.org/ns#"
   xmlns:rdf="http://www.w3.org/1999/02/22-rdf-syntax-ns#"
   xmlns:svg="http://www.w3.org/2000/svg"
   xmlns="http://www.w3.org/2000/svg"
   xmlns:sodipodi="http://sodipodi.sourceforge.net/DTD/sodipodi-0.dtd"
   xmlns:inkscape="http://www.inkscape.org/namespaces/inkscape"
   data-name="Layer 1"
   viewBox="0 0 300 70"
   x="0px"
   y="0px"
   version="1.1"
   id="svg10"
   sodipodi:docname="logo_text_white.svg"
   inkscape:version="0.92.4 5da689c313, 2019-01-14">
  <metadata
     id="metadata16">
    <rdf:RDF>
      <cc:Work
         rdf:about="">
        <dc:format>image/svg+xml</dc:format>
        <dc:type
           rdf:resource="http://purl.org/dc/dcmitype/StillImage" />
      </cc:Work>
    </rdf:RDF>
  </metadata>
  <defs
     id="defs14" />
  <sodipodi:namedview
     pagecolor="#ffffff"
     bordercolor="#666666"
     borderopacity="1"
     objecttolerance="10"
     gridtolerance="10"
     guidetolerance="10"
     inkscape:pageopacity="0"
     inkscape:pageshadow="2"
     inkscape:window-width="1278"
     inkscape:window-height="470"
     id="namedview12"
     showgrid="false"
     inkscape:zoom="1.0666667"
     inkscape:cx="150"
     inkscape:cy="35"
     inkscape:window-x="1280"
     inkscape:window-y="24"
     inkscape:window-maximized="0"
     inkscape:current-layer="svg10" />
  <title
     id="title2">Doubleboiler</title>
  <path
     style="fill:#ffffff;fill-opacity:1;stroke:#ffffff;stroke-width:4;stroke-linecap:round;stroke-linejoin:round"
     d="M 0,0 H 300 V 70 H 0 Z"
     id="polygon4" />
  <path
     style="fill:#ffffff;fill-opacity:0;stroke:#263238;stroke-width:2;stroke-linecap:round;stroke-linejoin:round"
     d="M 10,10 H 290 V 60 H 10 Z"
     id="polygon6" />
  <g
     aria-label="DOUBLEBOILER"
     transform="translate(0, 12.5)"
     style="font-weight:bold;font-size:35px;font-family:Oswald;text-anchor:middle;fill:#263238"
     id="text8">
    <path
       d="m 8.4277344,14.458008 v 15.568847 h 2.3583986 q 4.033203,0 6.152344,-1.999511 2.13623,-1.999512 2.13623,-5.810547 0,-3.793945 -2.119141,-5.776367 -2.11914,-1.982422 -6.169433,-1.982422 z M 1.8481445,9.4848633 h 6.9384766 q 5.8105469,0 8.6474609,0.8374027 2.854004,0.820312 4.887695,2.802734 1.794434,1.726074 2.666016,3.981934 0.871582,2.255859 0.871582,5.109863 0,2.888183 -0.871582,5.161133 -0.871582,2.255859 -2.666016,3.981933 -2.050781,1.982422 -4.921875,2.819824 Q 14.528809,35 8.7866211,35 H 1.8481445 Z"
       style="font-weight:bold;font-size:35px;font-family:Oswald;text-anchor:middle;fill:#263238"
       id="path20" />
    <path
       d="m 42.556152,13.791504 q -3.007812,0 -4.665527,2.22168 -1.657715,2.221679 -1.657715,6.254882 0,4.016114 1.657715,6.237793 1.657715,2.22168 4.665527,2.22168 3.024903,0 4.682618,-2.22168 1.657714,-2.221679 1.657714,-6.237793 0,-4.033203 -1.657714,-6.254882 -1.657715,-2.22168 -4.682618,-2.22168 z m 0,-4.7680665 q 6.152344,0 9.638672,3.5205075 3.486328,3.520508 3.486328,9.724121 0,6.186524 -3.486328,9.707032 -3.486328,3.520507 -9.638672,3.520507 -6.135254,0 -9.638672,-3.520507 -3.486328,-3.520508 -3.486328,-9.707032 0,-6.203613 3.486328,-9.724121 3.503418,-3.5205075 9.638672,-3.5205075 z"
       style="font-weight:bold;font-size:35px;font-family:Oswald;text-anchor:middle;fill:#263238"
       id="path22" />
    <path
       d="m 60.654297,9.4848633 h 6.57959 V 24.780273 q 0,3.161622 1.02539,4.528809 1.042481,1.350098 3.383789,1.350098 2.358399,0 3.383789,-1.350098 1.042481,-1.367187 1.042481,-4.528809 V 9.4848633 h 6.57959 V 24.780273 q 0,5.417481 -2.717285,8.066407 -2.717286,2.648925 -8.288575,2.648925 -5.554199,0 -8.271484,-2.648925 -2.717285,-2.648926 -2.717285,-8.066407 z"
       style="font-weight:bold;font-size:35px;font-family:Oswald;text-anchor:middle;fill:#263238"
       id="path24" />
    <path
       d="m 99.294434,19.362793 q 1.555176,0 2.358396,-0.683594 0.80322,-0.683594 0.80322,-2.016601 0,-1.315918 -0.80322,-1.999512 -0.80322,-0.700684 -2.358396,-0.700684 h -3.640137 v 5.400391 z m 0.222168,11.159668 q 1.982418,0 2.973628,-0.837402 1.00831,-0.837403 1.00831,-2.529297 0,-1.657715 -0.99122,-2.478028 -0.99121,-0.837402 -2.990718,-0.837402 h -3.862305 v 6.682129 z m 6.118168,-9.177246 q 2.11914,0.615234 3.28125,2.272949 1.16211,1.657715 1.16211,4.067383 0,3.691406 -2.49512,5.50293 Q 105.08789,35 99.995117,35 H 89.074707 V 9.4848633 h 9.87793 q 5.314943,0 7.690433,1.6064457 2.39257,1.606445 2.39257,5.144043 0,1.862793 -0.87158,3.17871 -0.87158,1.298829 -2.52929,1.931153 z"
       style="font-weight:bold;font-size:35px;font-family:Oswald;text-anchor:middle;fill:#263238"
       id="path26" />
    <path
       d="m 115.75195,9.4848633 h 6.57959 V 30.026855 h 11.55274 V 35 h -18.13233 z"
       style="font-weight:bold;font-size:35px;font-family:Oswald;text-anchor:middle;fill:#263238"
       id="path28" />
    <path
       d="m 138.0542,9.4848633 h 17.75635 v 4.9731447 h -11.17676 v 4.750976 h 10.51025 v 4.973145 h -10.51025 v 5.844726 h 11.55273 V 35 H 138.0542 Z"
       style="font-weight:bold;font-size:35px;font-family:Oswald;text-anchor:middle;fill:#263238"
       id="path30" />
    <path
       d="m 172.18262,19.362793 q 1.55517,0 2.3584,-0.683594 0.80322,-0.683594 0.80322,-2.016601 0,-1.315918 -0.80322,-1.999512 -0.80323,-0.700684 -2.3584,-0.700684 h -3.64014 v 5.400391 z m 0.22217,11.159668 q 1.98242,0 2.97363,-0.837402 1.0083,-0.837403 1.0083,-2.529297 0,-1.657715 -0.99121,-2.478028 -0.99121,-0.837402 -2.99072,-0.837402 h -3.86231 v 6.682129 z m 6.11816,-9.177246 q 2.11914,0.615234 3.28125,2.272949 1.16211,1.657715 1.16211,4.067383 0,3.691406 -2.49512,5.50293 Q 177.97607,35 172.8833,35 H 161.96289 V 9.4848633 h 9.87793 q 5.31494,0 7.69043,1.6064457 2.39258,1.606445 2.39258,5.144043 0,1.862793 -0.87158,3.17871 -0.87159,1.298829 -2.5293,1.931153 z"
       style="font-weight:bold;font-size:35px;font-family:Oswald;text-anchor:middle;fill:#263238"
       id="path32" />
    <path
       d="m 200.29541,13.791504 q -3.00781,0 -4.66553,2.22168 -1.65771,2.221679 -1.65771,6.254882 0,4.016114 1.65771,6.237793 1.65772,2.22168 4.66553,2.22168 3.0249,0 4.68262,-2.22168 1.65771,-2.221679 1.65771,-6.237793 0,-4.033203 -1.65771,-6.254882 -1.65772,-2.22168 -4.68262,-2.22168 z m 0,-4.7680665 q 6.15234,0 9.63867,3.5205075 3.48633,3.520508 3.48633,9.724121 0,6.186524 -3.48633,9.707032 -3.48633,3.520507 -9.63867,3.520507 -6.13525,0 -9.63867,-3.520507 -3.48633,-3.520508 -3.48633,-9.707032 0,-6.203613 3.48633,-9.724121 3.50342,-3.5205075 9.63867,-3.5205075 z"
       style="font-weight:bold;font-size:35px;font-family:Oswald;text-anchor:middle;fill:#263238"
       id="path34" />
    <path
       d="m 218.39355,9.4848633 h 6.57959 V 35 h -6.57959 z"
       style="font-weight:bold;font-size:35px;font-family:Oswald;text-anchor:middle;fill:#263238"
       id="path36" />
    <path
       d="m 231.41602,9.4848633 h 6.57959 V 30.026855 h 11.55273 V 35 h -18.13232 z"
       style="font-weight:bold;font-size:35px;font-family:Oswald;text-anchor:middle;fill:#263238"
       id="path38" />
    <path
       d="m 253.71826,9.4848633 h 17.75635 v 4.9731447 h -11.17676 v 4.750976 h 10.51026 v 4.973145 h -10.51026 v 5.844726 h 11.55274 V 35 h -18.13233 z"
       style="font-weight:bold;font-size:35px;font-family:Oswald;text-anchor:middle;fill:#263238"
       id="path40" />
    <path
       d="m 286.9751,20.79834 q 2.06787,0 2.95654,-0.769043 0.90576,-0.769043 0.90576,-2.529297 0,-1.743164 -0.90576,-2.495117 -0.88867,-0.751953 -2.95654,-0.751953 h -2.76856 v 6.54541 z m -2.76856,4.545898 V 35 h -6.57959 V 9.4848633 h 10.04883 q 5.04151,0 7.38281,1.6918947 2.3584,1.691894 2.3584,5.349121 0,2.529297 -1.23047,4.152832 -1.21338,1.623535 -3.67431,2.392578 1.35009,0.307617 2.40966,1.401367 1.07667,1.07666 2.17042,3.28125 L 300.66406,35 h -7.00683 l -3.11036,-6.340332 q -0.93994,-1.914063 -1.91406,-2.614746 -0.95703,-0.700684 -2.56347,-0.700684 z"
       style="font-weight:bold;font-size:35px;font-family:Oswald;text-anchor:middle;fill:#263238"
       id="path42" />
  </g>
</svg>
