<?xml version="1.0" encoding="UTF-8"?>
<svg id="svg2" data-name="Layer 1" version="1.1" viewBox="0 0 300 70" xmlns="http://www.w3.org/2000/svg">
 <title id="title1">Doubleboiler</title>
 <path id="polygon1" d="m0 0h300v70h-300z" fill="#fff" stroke="#fff" stroke-linecap="round" stroke-linejoin="round" stroke-width="4"/>
 <path id="polygon2" d="m10 10h280v50h-280z" fill-opacity="0" stroke="#263238" stroke-linecap="round" stroke-linejoin="round" stroke-width="2"/>
 <path id="text2" transform="translate(0 12.5)" d="m28.652 17.393v13.345h2.0215q3.457 0 5.2734-1.7139 1.8311-1.7139 1.8311-4.9805 0-3.252-1.8164-4.9512t-5.2881-1.6992zm-5.6396-4.2627h5.9473q4.9805 0 7.4121 0.71777 2.4463 0.70312 4.1895 2.4023 1.5381 1.4795 2.2852 3.4131 0.74707 1.9336 0.74707 4.3799 0 2.4756-0.74707 4.4238-0.74707 1.9336-2.2852 3.4131-1.7578 1.6992-4.2188 2.417-2.4609 0.70312-7.3828 0.70312h-5.9473zm34.893 3.6914q-2.5781 0-3.999 1.9043t-1.4209 5.3613q0 3.4424 1.4209 5.3467t3.999 1.9043q2.5928 0 4.0137-1.9043 1.4209-1.9043 1.4209-5.3467 0-3.457-1.4209-5.3613-1.4209-1.9043-4.0137-1.9043zm0-4.0869q5.2734 0 8.2617 3.0176t2.9883 8.335q0 5.3027-2.9883 8.3203-2.9883 3.0176-8.2617 3.0176-5.2588 0-8.2617-3.0176-2.9883-3.0176-2.9883-8.3203 0-5.3174 2.9883-8.335 3.0029-3.0176 8.2617-3.0176zm15.513 0.39551h5.6396v13.11q0 2.71 0.87891 3.8818 0.89356 1.1572 2.9004 1.1572 2.0215 0 2.9004-1.1572 0.89355-1.1719 0.89355-3.8818v-13.11h5.6396v13.11q0 4.6436-2.3291 6.9141-2.3291 2.2705-7.1045 2.2705-4.7607 0-7.0898-2.2705-2.3291-2.2705-2.3291-6.9141zm33.12 8.4668q1.333 0 2.0215-0.58594 0.68848-0.58594 0.68848-1.7285 0-1.1279-0.68848-1.7139-0.68848-0.60059-2.0215-0.60059h-3.1201v4.6289zm0.19043 9.5654q1.6992 0 2.5488-0.71777 0.86426-0.71777 0.86426-2.168 0-1.4209-0.84961-2.124-0.84961-0.71777-2.5635-0.71777h-3.3106v5.7275zm5.2441-7.8662q1.8164 0.52734 2.8125 1.9482 0.99609 1.4209 0.99609 3.4863 0 3.1641-2.1387 4.7168-2.1387 1.5527-6.5039 1.5527h-9.3604v-21.87h8.4668q4.5557 0 6.5918 1.377 2.0508 1.377 2.0508 4.4092 0 1.5967-0.74707 2.7246-0.74708 1.1133-2.168 1.6553zm8.6719-10.166h5.6396v17.607h9.9023v4.2627h-15.542zm19.116 0h15.22v4.2627h-9.5801v4.0723h9.0088v4.2627h-9.0088v5.0098h9.9023v4.2627h-15.542zm29.253 8.4668q1.333 0 2.0215-0.58594 0.68847-0.58594 0.68847-1.7285 0-1.1279-0.68847-1.7139-0.68848-0.60059-2.0215-0.60059h-3.1201v4.6289zm0.19043 9.5654q1.6992 0 2.5488-0.71777 0.86426-0.71777 0.86426-2.168 0-1.4209-0.84961-2.124-0.84961-0.71777-2.5635-0.71777h-3.3106v5.7275zm5.2441-7.8662q1.8164 0.52734 2.8125 1.9482 0.9961 1.4209 0.9961 3.4863 0 3.1641-2.1387 4.7168-2.1387 1.5527-6.5039 1.5527h-9.3604v-21.87h8.4668q4.5557 0 6.5918 1.377 2.0508 1.377 2.0508 4.4092 0 1.5967-0.74707 2.7246-0.74707 1.1133-2.168 1.6553zm18.662-6.4746q-2.5781 0-3.999 1.9043t-1.4209 5.3613q0 3.4424 1.4209 5.3467t3.999 1.9043q2.5928 0 4.0137-1.9043t1.4209-5.3467q0-3.457-1.4209-5.3613t-4.0137-1.9043zm0-4.0869q5.2734 0 8.2617 3.0176t2.9883 8.335q0 5.3027-2.9883 8.3203-2.9883 3.0176-8.2617 3.0176-5.2588 0-8.2617-3.0176-2.9883-3.0176-2.9883-8.3203 0-5.3174 2.9883-8.335 3.0029-3.0176 8.2617-3.0176zm15.513 0.39551h5.6396v21.87h-5.6396zm11.162 0h5.6396v17.607h9.9024v4.2627h-15.542zm19.116 0h15.22v4.2627h-9.5801v4.0723h9.0088v4.2627h-9.0088v5.0098h9.9023v4.2627h-15.542zm28.506 9.6973q1.7725 0 2.5342-0.65918 0.77636-0.65918 0.77636-2.168 0-1.4941-0.77636-2.1387-0.76172-0.64453-2.5342-0.64453h-2.373v5.6104zm-2.373 3.8965v8.2764h-5.6396v-21.87h8.6133q4.3213 0 6.3281 1.4502 2.0215 1.4502 2.0215 4.585 0 2.168-1.0547 3.5596-1.04 1.3916-3.1494 2.0508 1.1572 0.26367 2.0654 1.2012 0.92285 0.92285 1.8604 2.8125l3.0615 6.2109h-6.0058l-2.666-5.4346q-0.80566-1.6406-1.6406-2.2412-0.82031-0.60059-2.1973-0.60059z" fill="#263238" aria-label="DOUBLEBOILER"/>
</svg>
