<?xml version="1.0" encoding="UTF-8"?>
<svg id="svg8" data-name="Layer 1" version="1.1" viewBox="0 0 300 70" xmlns="http://www.w3.org/2000/svg" xmlns:cc="http://creativecommons.org/ns#" xmlns:dc="http://purl.org/dc/elements/1.1/" xmlns:rdf="http://www.w3.org/1999/02/22-rdf-syntax-ns#">
 <metadata id="metadata14">
  <rdf:RDF>
   <cc:Work rdf:about="">
    <dc:format>image/svg+xml</dc:format>
    <dc:type rdf:resource="http://purl.org/dc/dcmitype/StillImage"/>
   </cc:Work>
  </rdf:RDF>
 </metadata>
 <title id="title2">Doubleboiler</title>
 <path id="polygon4" d="m10 10h280v50h-280z" fill-opacity="0" stroke="#fff" stroke-linecap="round" stroke-linejoin="round" stroke-width="2"/>
 <g id="text6" transform="translate(0 12.5)" fill="#fff" aria-label="DOUBLEBOILER">
  <path id="path17" d="m76.89 33.599q-1.8115 0.93994-3.7769 1.4185-1.9653 0.47852-4.1016 0.47852-6.3745 0-10.1-3.5547-3.7256-3.5718-3.7256-9.6729 0-6.1182 3.7256-9.6729 3.7256-3.5718 10.1-3.5718 2.1362 0 4.1016 0.47852 1.9653 0.47852 3.7769 1.4185v5.2808q-1.8286-1.2476-3.606-1.8286-1.7773-0.58106-3.7427-0.58106-3.5205 0-5.5371 2.2559-2.0166 2.2559-2.0166 6.2207 0 3.9478 2.0166 6.2036 2.0166 2.2559 5.5371 2.2559 1.9653 0 3.7427-0.58106 1.7773-0.58105 3.606-1.8286z"/>
  <path id="path19" d="m82.358 9.4849h6.5796v20.542h11.553v4.9731h-18.132z"/>
  <path id="path21" d="m103.41 9.4849h6.5796v15.295q0 3.1616 1.0254 4.5288 1.0425 1.3501 3.3838 1.3501 2.3584 0 3.3838-1.3501 1.0425-1.3672 1.0425-4.5288v-15.295h6.5796v15.295q0 5.4175-2.7173 8.0664-2.7173 2.6489-8.2886 2.6489-5.5542 0-8.2715-2.6489-2.7173-2.6489-2.7173-8.0664z"/>
  <path id="path23" d="m142.07 19.363q1.5552 0 2.3584-0.68359t0.80322-2.0166q0-1.3159-0.80322-1.9995-0.80322-0.70068-2.3584-0.70068h-3.6401v5.4004zm0.22217 11.16q1.9824 0 2.9736-0.8374 1.0083-0.8374 1.0083-2.5293 0-1.6577-0.99121-2.478-0.99121-0.8374-2.9907-0.8374h-3.8623v6.6821zm6.1182-9.1772q2.1192 0.61523 3.2812 2.2729 1.1621 1.6577 1.1621 4.0674 0 3.6914-2.4951 5.5029-2.4951 1.8115-7.5879 1.8115h-10.92v-25.515h9.8779q5.3149 0 7.6904 1.6064 2.3926 1.6064 2.3926 5.144 0 1.8628-0.87158 3.1787-0.87158 1.2988-2.5293 1.9312z"/>
  <path id="path25" d="m158.51 9.4849h8.374l5.8105 13.655 5.8447-13.655h8.3569v25.515h-6.2207v-18.662l-5.8789 13.757h-4.1699l-5.8789-13.757v18.662h-6.2378z"/>
  <path id="path27" d="m208.86 30.352h-10.288l-1.6235 4.6484h-6.6138l9.4507-25.515h7.8442l9.4507 25.515h-6.6138zm-8.6475-4.7339h6.9898l-3.4863-10.151z"/>
  <path id="path29" d="m220.44 9.4849h7.3486l9.2798 17.5v-17.5h6.2378v25.515h-7.3486l-9.2798-17.5v17.5h-6.2378z"/>
 </g>
</svg>
