<?xml version="1.0" encoding="UTF-8" standalone="no"?>
<svg
   data-name="Layer 1"
   viewBox="0 0 300 70"
   x="0px"
   y="0px"
   version="1.1"
   id="svg2"
   sodipodi:docname="logo_text_white_src.svg"
   xmlns:inkscape="http://www.inkscape.org/namespaces/inkscape"
   xmlns:sodipodi="http://sodipodi.sourceforge.net/DTD/sodipodi-0.dtd"
   xmlns="http://www.w3.org/2000/svg"
   xmlns:svg="http://www.w3.org/2000/svg">
  <defs
     id="defs2" />
  <sodipodi:namedview
     id="namedview2"
     pagecolor="#ffffff"
     bordercolor="#000000"
     borderopacity="0.25"
     inkscape:showpageshadow="2"
     inkscape:pageopacity="0.0"
     inkscape:pagecheckerboard="0"
     inkscape:deskcolor="#d1d1d1" />
  <title
     id="title1">Doubleboiler</title>
  <path
     id="polygon1"
     style="fill:#ffffff;stroke:#ffffff;stroke-width:4;stroke-linecap:round;stroke-linejoin:round"
     d="M 0,0 H 300 V 70 H 0 Z" />
  <path
     id="polygon2"
     style="fill:#ffffff;fill-opacity:0;stroke:#263238;stroke-width:2;stroke-linecap:round;stroke-linejoin:round"
     d="M 10,10 H 290 V 60 H 10 Z" />
  <path
     d="m 28.652344,17.392578 v 13.344727 h 2.021484 q 3.457031,0 5.273438,-1.713868 1.831054,-1.713867 1.831054,-4.980468 0,-3.251953 -1.816406,-4.951172 -1.816406,-1.699219 -5.288086,-1.699219 z m -5.639649,-4.262695 h 5.947266 q 4.980469,0 7.412109,0.717773 2.446289,0.703125 4.189453,2.402344 1.538086,1.479492 2.285157,3.413086 0.74707,1.933594 0.74707,4.379883 0,2.475586 -0.74707,4.423828 -0.747071,1.933594 -2.285157,3.413086 -1.757812,1.699219 -4.21875,2.416992 Q 33.881836,35 28.959961,35 h -5.947266 z m 34.892578,3.691406 q -2.578125,0 -3.999023,1.904297 -1.420898,1.904297 -1.420898,5.361328 0,3.442383 1.420898,5.34668 1.420898,1.904297 3.999023,1.904297 2.592774,0 4.013672,-1.904297 1.420899,-1.904297 1.420899,-5.34668 0,-3.457031 -1.420899,-5.361328 -1.420898,-1.904297 -4.013672,-1.904297 z m 0,-4.086914 q 5.273438,0 8.261719,3.017578 2.988281,3.017578 2.988281,8.334961 0,5.302734 -2.988281,8.320313 -2.988281,3.017578 -8.261719,3.017578 -5.258789,0 -8.261718,-3.017578 -2.988282,-3.017579 -2.988282,-8.320313 0,-5.317383 2.988282,-8.334961 3.002929,-3.017578 8.261718,-3.017578 z m 15.512696,0.395508 h 5.639648 v 13.110351 q 0,2.709961 0.878906,3.881836 0.893555,1.157227 2.900391,1.157227 2.021484,0 2.900391,-1.157227 0.893554,-1.171875 0.893554,-3.881836 V 13.129883 h 5.639649 v 13.110351 q 0,4.643555 -2.329102,6.914063 -2.329101,2.270508 -7.104492,2.270508 -4.760742,0 -7.089844,-2.270508 -2.329101,-2.270508 -2.329101,-6.914063 z m 33.120121,8.466797 q 1.333,0 2.02148,-0.585938 0.68848,-0.585937 0.68848,-1.728515 0,-1.12793 -0.68848,-1.713868 -0.68848,-0.600586 -2.02148,-0.600586 h -3.12012 v 4.628907 z m 0.19043,9.565429 q 1.69921,0 2.54882,-0.717773 0.86426,-0.717774 0.86426,-2.167969 0,-1.420898 -0.84961,-2.124023 -0.84961,-0.717774 -2.56347,-0.717774 h -3.31055 v 5.727539 z m 5.24414,-7.866211 q 1.8164,0.527344 2.8125,1.948243 0.99609,1.420898 0.99609,3.486328 0,3.164062 -2.13867,4.716797 Q 111.50391,35 107.13867,35 H 97.77832 V 13.129883 h 8.4668 q 4.55566,0 6.59179,1.376953 2.05079,1.376953 2.05079,4.40918 0,1.596679 -0.74707,2.724609 -0.74708,1.113281 -2.16797,1.655273 z m 8.67187,-10.166015 h 5.63965 v 17.607422 h 9.90234 V 35 h -15.54199 z m 19.11621,0 h 15.21973 v 4.262695 h -9.58008 v 4.072266 h 9.00879 v 4.262695 h -9.00879 v 5.009766 h 9.90234 V 35 h -15.54199 z m 29.25293,8.466797 q 1.33301,0 2.02149,-0.585938 0.68847,-0.585937 0.68847,-1.728515 0,-1.12793 -0.68847,-1.713868 -0.68848,-0.600586 -2.02149,-0.600586 h -3.12012 v 4.628907 z m 0.19043,9.565429 q 1.69922,0 2.54883,-0.717773 0.86426,-0.717774 0.86426,-2.167969 0,-1.420898 -0.84961,-2.124023 -0.84961,-0.717774 -2.56348,-0.717774 h -3.31055 v 5.727539 z m 5.24414,-7.866211 q 1.81641,0.527344 2.8125,1.948243 0.9961,1.420898 0.9961,3.486328 0,3.164062 -2.13868,4.716797 Q 173.97949,35 169.61426,35 h -9.36035 V 13.129883 h 8.46679 q 4.55567,0 6.5918,1.376953 2.05078,1.376953 2.05078,4.40918 0,1.596679 -0.74707,2.724609 -0.74707,1.113281 -2.16797,1.655273 z m 18.66211,-6.474609 q -2.57812,0 -3.99902,1.904297 -1.4209,1.904297 -1.4209,5.361328 0,3.442383 1.4209,5.34668 1.4209,1.904297 3.99902,1.904297 2.59277,0 4.01367,-1.904297 1.4209,-1.904297 1.4209,-5.34668 0,-3.457031 -1.4209,-5.361328 -1.4209,-1.904297 -4.01367,-1.904297 z m 0,-4.086914 q 5.27344,0 8.26172,3.017578 2.98828,3.017578 2.98828,8.334961 0,5.302734 -2.98828,8.320313 -2.98828,3.017578 -8.26172,3.017578 -5.25879,0 -8.26172,-3.017578 -2.98828,-3.017579 -2.98828,-8.320313 0,-5.317383 2.98828,-8.334961 3.00293,-3.017578 8.26172,-3.017578 z m 15.5127,0.395508 h 5.63965 V 35 h -5.63965 z m 11.16211,0 h 5.63964 v 17.607422 h 9.90235 V 35 h -15.54199 z m 19.11621,0 h 15.21972 v 4.262695 h -9.58007 v 4.072266 h 9.00878 v 4.262695 h -9.00878 v 5.009766 h 9.90234 V 35 h -15.54199 z m 28.50586,9.697265 q 1.77246,0 2.53418,-0.659179 0.77636,-0.65918 0.77636,-2.167969 0,-1.494141 -0.77636,-2.138672 -0.76172,-0.644531 -2.53418,-0.644531 h -2.37305 v 5.610351 z m -2.37305,3.896485 V 35 h -5.63965 V 13.129883 h 8.61328 q 4.32129,0 6.32813,1.450195 2.02148,1.450195 2.02148,4.584961 0,2.167969 -1.05469,3.55957 -1.04003,1.391602 -3.14941,2.050782 1.15723,0.263671 2.06543,1.201171 0.92285,0.922852 1.86035,2.8125 L 279.14062,35 h -6.00585 l -2.66602,-5.43457 q -0.80566,-1.640625 -1.64063,-2.241211 -0.82031,-0.600586 -2.19726,-0.600586 z"
     id="text2"
     style="font-weight:bold;font-size:30px;font-family:Oswald;text-anchor:middle;fill:#263238"
     transform="translate(0, 12.5)"
     aria-label="DOUBLEBOILER" />
</svg>
